<?xml version="1.0" standalone="no"?><!-- Generator: Gravit.io --><svg xmlns="http://www.w3.org/2000/svg" xmlns:xlink="http://www.w3.org/1999/xlink" style="isolation:isolate" viewBox="940.25 415.496 20 20" width="20" height="20"><g id="Group"><path d=" M 960.25 425.496 C 960.25 431.019 955.773 435.496 950.25 435.496 C 944.727 435.496 940.25 431.019 940.25 425.496 C 940.25 419.973 944.727 415.496 950.25 415.496 C 955.773 415.496 960.25 419.973 960.25 425.496 Z  M 947.435 421.166 C 947.164 420.895 946.769 420.79 946.4 420.889 C 946.03 420.988 945.741 421.277 945.642 421.647 C 945.543 422.017 945.649 422.412 945.92 422.682 L 948.735 425.496 L 945.92 428.309 C 945.649 428.58 945.544 428.975 945.643 429.345 C 945.742 429.714 946.032 430.003 946.401 430.102 C 946.771 430.201 947.166 430.095 947.437 429.824 L 950.25 427.011 L 953.063 429.824 C 953.334 430.095 953.729 430.201 954.099 430.102 C 954.468 430.003 954.758 429.714 954.857 429.345 C 954.956 428.975 954.851 428.58 954.58 428.309 L 951.763 425.496 L 954.58 422.681 C 954.851 422.41 954.956 422.015 954.857 421.645 C 954.758 421.275 954.468 420.987 954.099 420.888 C 953.729 420.789 953.334 420.895 953.063 421.166 L 950.25 423.981 L 947.435 421.166 Z " fill-rule="evenodd" fill="rgb(243,205,170)"/><rect x="940.25" y="415.496" width="20" height="20" transform="matrix(1,0,0,1,0,0)" fill="none"/></g></svg>