<?xml version="1.0" standalone="no"?><!-- Generator: Gravit.io --><svg xmlns="http://www.w3.org/2000/svg" xmlns:xlink="http://www.w3.org/1999/xlink" style="isolation:isolate" viewBox="906.996 142.994 20 20" width="20" height="20"><g id="Group"><path d=" M 926.996 152.994 C 926.996 158.517 922.518 162.994 916.996 162.994 C 911.473 162.994 906.996 158.517 906.996 152.994 C 906.996 147.471 911.473 142.994 916.996 142.994 C 922.518 142.994 926.996 147.471 926.996 152.994 Z  M 914.181 148.664 C 913.91 148.393 913.515 148.288 913.145 148.387 C 912.775 148.486 912.487 148.775 912.388 149.145 C 912.289 149.515 912.395 149.91 912.666 150.181 L 915.481 152.994 L 912.666 155.807 C 912.395 156.078 912.289 156.473 912.389 156.843 C 912.488 157.213 912.777 157.501 913.147 157.6 C 913.517 157.699 913.912 157.593 914.182 157.322 L 916.996 154.509 L 919.809 157.322 C 920.08 157.593 920.474 157.699 920.844 157.6 C 921.214 157.501 921.503 157.213 921.602 156.843 C 921.702 156.473 921.596 156.078 921.326 155.807 L 918.509 152.994 L 921.326 150.179 C 921.596 149.908 921.702 149.513 921.602 149.143 C 921.503 148.774 921.214 148.485 920.844 148.386 C 920.474 148.287 920.08 148.393 919.809 148.664 L 916.996 151.479 L 914.181 148.664 Z " fill-rule="evenodd" fill="rgb(243,205,170)"/><rect x="906.996" y="142.994" width="20" height="20" transform="matrix(1,0,0,1,0,0)" fill="none"/></g></svg>