<?xml version="1.0" standalone="no"?><!-- Generator: Gravit.io --><svg xmlns="http://www.w3.org/2000/svg" xmlns:xlink="http://www.w3.org/1999/xlink" style="isolation:isolate" viewBox="763 461 20 20" width="20" height="20"><g id="Group"><path d=" M 782.999 464.272 C 783 464.7 782.917 465.124 782.756 465.521 C 782.593 465.924 782.35 466.289 782.042 466.595 L 769.182 479.456 L 763 481 L 764.542 474.818 L 777.405 461.956 C 777.711 461.649 778.076 461.406 778.479 461.244 C 778.875 461.083 779.3 461 779.728 461 C 780.177 461 780.599 461.086 780.997 461.259 C 781.385 461.426 781.739 461.664 782.039 461.961 C 782.333 462.258 782.567 462.605 782.74 463.001 C 782.914 463.4 783 463.822 783 464.272 L 782.999 464.272 Z  M 764.719 479.282 L 767.931 478.48 C 767.803 477.889 767.508 477.346 767.082 476.917 C 766.653 476.491 766.111 476.197 765.52 476.068 L 764.719 479.282 Z  M 766.184 474.945 C 766.874 475.174 767.468 475.536 767.966 476.034 C 768.465 476.534 768.838 477.144 769.055 477.816 L 779.611 467.251 L 776.75 464.389 L 766.184 474.945 L 766.184 474.945 Z  M 780.499 466.361 C 780.662 466.199 780.818 466.046 780.968 465.902 C 781.115 465.763 781.249 465.611 781.368 465.448 C 781.486 465.289 781.579 465.115 781.647 464.931 C 781.719 464.722 781.754 464.502 781.75 464.281 C 781.75 464.001 781.696 463.739 781.588 463.495 C 781.377 463.01 780.99 462.622 780.505 462.411 C 780.257 462.302 779.989 462.247 779.719 462.25 C 779.471 462.25 779.255 462.284 779.068 462.353 C 778.884 462.421 778.71 462.514 778.551 462.63 C 778.388 462.75 778.236 462.885 778.097 463.032 C 777.954 463.182 777.801 463.338 777.639 463.5 L 780.5 466.361 L 780.499 466.361 Z " fill-rule="evenodd" fill="rgb(243,205,170)"/></g></svg>