<?xml version="1.0" standalone="no"?><!-- Generator: Gravit.io --><svg xmlns="http://www.w3.org/2000/svg" xmlns:xlink="http://www.w3.org/1999/xlink" style="isolation:isolate" viewBox="401 216.494 15 15" width="15" height="15"><path d=" M 406.36 226.161 C 405.256 226.161 404.152 225.74 403.314 224.903 C 401.634 223.223 401.634 220.492 403.314 218.812 C 404.994 217.132 407.725 217.132 409.405 218.812 C 411.086 220.492 411.086 223.223 409.405 224.903 C 408.598 225.71 407.502 226.162 406.36 226.161 L 406.36 226.161 Z  M 406.36 218.214 C 405.424 218.214 404.493 218.568 403.784 219.278 C 402.361 220.7 402.361 223.01 403.784 224.433 C 405.207 225.856 407.517 225.856 408.94 224.433 C 410.363 223.01 410.363 220.7 408.94 219.278 C 408.255 218.596 407.327 218.213 406.36 218.214 Z  M 409.317 221.569 C 409.169 221.569 409.039 221.472 408.998 221.33 C 408.936 221.104 408.838 220.882 408.718 220.678 C 408.625 220.523 408.678 220.319 408.834 220.226 C 408.989 220.133 409.193 220.186 409.286 220.341 C 409.437 220.594 409.552 220.869 409.632 221.153 C 409.68 221.33 409.578 221.512 409.401 221.56 C 409.379 221.565 409.348 221.569 409.317 221.569 L 409.317 221.569 Z  M 404.179 220.226 C 404.094 220.226 404.01 220.195 403.944 220.129 C 403.882 220.067 403.847 219.983 403.847 219.896 C 403.847 219.809 403.882 219.725 403.944 219.663 C 405.111 218.492 406.951 218.33 408.306 219.278 C 408.457 219.384 408.492 219.588 408.386 219.739 C 408.279 219.889 408.076 219.925 407.925 219.818 C 406.833 219.055 405.35 219.186 404.409 220.129 C 404.349 220.192 404.266 220.227 404.179 220.226 L 404.179 220.226 Z  M 415.661 229.513 L 412.172 226.024 C 411.809 225.662 411.251 225.582 410.802 225.829 L 410.381 225.408 C 412.243 223.302 412.167 220.075 410.155 218.063 C 408.062 215.971 404.662 215.971 402.569 218.063 C 400.477 220.155 400.477 223.555 402.569 225.647 C 403.585 226.662 404.928 227.216 406.364 227.216 C 407.685 227.216 408.936 226.742 409.915 225.873 L 410.336 226.294 C 410.097 226.733 410.159 227.296 410.532 227.664 L 414.021 231.153 C 414.247 231.379 414.544 231.494 414.841 231.494 C 415.138 231.494 415.435 231.379 415.661 231.153 C 416.113 230.705 416.113 229.965 415.661 229.513 L 415.661 229.513 Z  M 403.035 225.182 C 401.199 223.347 401.199 220.364 403.035 218.533 C 403.922 217.646 405.105 217.154 406.36 217.154 C 407.614 217.154 408.798 217.642 409.685 218.533 C 411.52 220.368 411.52 223.351 409.685 225.182 C 408.798 226.068 407.614 226.56 406.36 226.56 C 405.101 226.56 403.922 226.068 403.035 225.182 Z  M 415.191 230.687 C 414.996 230.882 414.677 230.882 414.482 230.687 L 410.997 227.199 C 410.802 227.004 410.802 226.685 410.997 226.489 C 411.095 226.392 411.223 226.343 411.352 226.343 C 411.48 226.343 411.609 226.392 411.706 226.489 L 415.195 229.978 C 415.386 230.177 415.386 230.492 415.191 230.687 L 415.191 230.687 Z " fill="rgb(116,116,116)"/></svg>